G04*
G04 #@! TF.GenerationSoftware,Altium Limited,Altium Designer,20.0.9 (164)*
G04*
G04 Layer_Color=128*
%FSLAX25Y25*%
%MOIN*%
G70*
G01*
G75*
%ADD10C,0.00200*%
D10*
X437441Y330000D02*
X442559D01*
X440000Y327441D02*
Y332559D01*
X437441Y320000D02*
X442559D01*
X440000Y317441D02*
Y322559D01*
X437441Y350000D02*
X442559D01*
X440000Y347441D02*
Y352559D01*
X437441Y340000D02*
X442559D01*
X440000Y337441D02*
Y342559D01*
X437441Y370000D02*
X442559D01*
X440000Y367441D02*
Y372559D01*
X437441Y360000D02*
X442559D01*
X440000Y357441D02*
Y362559D01*
X437441Y380000D02*
X442559D01*
X440000Y377441D02*
Y382559D01*
X437441Y390000D02*
X442559D01*
X440000Y387441D02*
Y392559D01*
X527441Y390000D02*
X532559D01*
X530000Y387441D02*
Y392559D01*
X527441Y360000D02*
X532559D01*
X530000Y357441D02*
Y362559D01*
X527441Y370000D02*
X532559D01*
X530000Y367441D02*
Y372559D01*
X527441Y380000D02*
X532559D01*
X530000Y377441D02*
Y382559D01*
X527441Y330000D02*
X532559D01*
X530000Y327441D02*
Y332559D01*
X527441Y350000D02*
X532559D01*
X530000Y347441D02*
Y352559D01*
X527441Y340000D02*
X532559D01*
X530000Y337441D02*
Y342559D01*
X527441Y320000D02*
X532559D01*
X530000Y317441D02*
Y322559D01*
X547441Y390000D02*
X552559D01*
X550000Y387441D02*
Y392559D01*
X547441Y380000D02*
X552559D01*
X550000Y377441D02*
Y382559D01*
X547441Y360000D02*
X552559D01*
X550000Y357441D02*
Y362559D01*
X547441Y370000D02*
X552559D01*
X550000Y367441D02*
Y372559D01*
X547441Y340000D02*
X552559D01*
X550000Y337441D02*
Y342559D01*
X547441Y350000D02*
X552559D01*
X550000Y347441D02*
Y352559D01*
X547441Y320000D02*
X552559D01*
X550000Y317441D02*
Y322559D01*
X547441Y330000D02*
X552559D01*
X550000Y327441D02*
Y332559D01*
X567441Y390000D02*
X572559D01*
X570000Y387441D02*
Y392559D01*
X567441Y380000D02*
X572559D01*
X570000Y377441D02*
Y382559D01*
X567441Y360000D02*
X572559D01*
X570000Y357441D02*
Y362559D01*
X567441Y370000D02*
X572559D01*
X570000Y367441D02*
Y372559D01*
X567441Y340000D02*
X572559D01*
X570000Y337441D02*
Y342559D01*
X567441Y350000D02*
X572559D01*
X570000Y347441D02*
Y352559D01*
X567441Y320000D02*
X572559D01*
X570000Y317441D02*
Y322559D01*
X567441Y330000D02*
X572559D01*
X570000Y327441D02*
Y332559D01*
X417441Y320000D02*
X422559D01*
X420000Y317441D02*
Y322559D01*
X417441Y330000D02*
X422559D01*
X420000Y327441D02*
Y332559D01*
X417441Y350000D02*
X422559D01*
X420000Y347441D02*
Y352559D01*
X417441Y340000D02*
X422559D01*
X420000Y337441D02*
Y342559D01*
X417441Y370000D02*
X422559D01*
X420000Y367441D02*
Y372559D01*
X417441Y360000D02*
X422559D01*
X420000Y357441D02*
Y362559D01*
X417441Y390000D02*
X422559D01*
X420000Y387441D02*
Y392559D01*
X417441Y380000D02*
X422559D01*
X420000Y377441D02*
Y382559D01*
X397441Y320000D02*
X402559D01*
X400000Y317441D02*
Y322559D01*
X397441Y330000D02*
X402559D01*
X400000Y327441D02*
Y332559D01*
X397441Y350000D02*
X402559D01*
X400000Y347441D02*
Y352559D01*
X397441Y340000D02*
X402559D01*
X400000Y337441D02*
Y342559D01*
X397441Y370000D02*
X402559D01*
X400000Y367441D02*
Y372559D01*
X397441Y360000D02*
X402559D01*
X400000Y357441D02*
Y362559D01*
X397441Y390000D02*
X402559D01*
X400000Y387441D02*
Y392559D01*
X397441Y380000D02*
X402559D01*
X400000Y377441D02*
Y382559D01*
X403504Y260807D02*
X405472D01*
X404488Y259823D02*
Y261791D01*
X403504Y288957D02*
X405472D01*
X404488Y287972D02*
Y289941D01*
X417165Y260807D02*
X419134D01*
X418150Y259823D02*
Y261791D01*
X417165Y288957D02*
X419134D01*
X418150Y287972D02*
Y289941D01*
X497441Y200000D02*
X502559D01*
X500000Y197441D02*
Y202559D01*
X497441Y210000D02*
X502559D01*
X500000Y207441D02*
Y212559D01*
X487441Y210000D02*
X492559D01*
X490000Y207441D02*
Y212559D01*
X487441Y200000D02*
X492559D01*
X490000Y197441D02*
Y202559D01*
X477441Y210000D02*
X482559D01*
X480000Y207441D02*
Y212559D01*
X477441Y200000D02*
X482559D01*
X480000Y197441D02*
Y202559D01*
X467441Y210000D02*
X472559D01*
X470000Y207441D02*
Y212559D01*
X467441Y200000D02*
X472559D01*
X470000Y197441D02*
Y202559D01*
X557441Y200000D02*
X562559D01*
X560000Y197441D02*
Y202559D01*
X557441Y210000D02*
X562559D01*
X560000Y207441D02*
Y212559D01*
X547441Y210000D02*
X552559D01*
X550000Y207441D02*
Y212559D01*
X547441Y200000D02*
X552559D01*
X550000Y197441D02*
Y202559D01*
X537441Y210000D02*
X542559D01*
X540000Y207441D02*
Y212559D01*
X537441Y200000D02*
X542559D01*
X540000Y197441D02*
Y202559D01*
X527441Y210000D02*
X532559D01*
X530000Y207441D02*
Y212559D01*
X527441Y200000D02*
X532559D01*
X530000Y197441D02*
Y202559D01*
X437441Y200000D02*
X442559D01*
X440000Y197441D02*
Y202559D01*
X437441Y210000D02*
X442559D01*
X440000Y207441D02*
Y212559D01*
X427441Y210000D02*
X432559D01*
X430000Y207441D02*
Y212559D01*
X427441Y200000D02*
X432559D01*
X430000Y197441D02*
Y202559D01*
X417441Y210000D02*
X422559D01*
X420000Y207441D02*
Y212559D01*
X417441Y200000D02*
X422559D01*
X420000Y197441D02*
Y202559D01*
X407441Y210000D02*
X412559D01*
X410000Y207441D02*
Y212559D01*
X407441Y200000D02*
X412559D01*
X410000Y197441D02*
Y202559D01*
M02*
