M48
;Layer_Color=9474304
;FILE_FORMAT=2:5
INCH,LZ
;TYPE=PLATED
T2F00S00C0.05118
%
T02
X047Y02
X048Y02
Y021
X049
Y02
X05
Y021
X053Y021
X054
Y02
X055Y02
X056
Y021
X055Y021
X053Y02
X047Y021
X044Y021
Y02
X043
Y021
X042
Y02
X041Y02
X041Y021
X04Y032
Y033
Y034
Y035
Y036
Y037
Y038
Y039
X042
Y038
Y037
Y036
Y035
Y034
Y033
Y032
X044
Y033
Y034
Y035
Y036
Y037
Y038
Y039
X053
Y038
Y037
Y036
Y035
Y034
Y033
Y032
X055
Y033
Y034
Y035
Y036
Y037
Y038
Y039
X057
Y038
Y037
Y036
Y035
Y034
Y033
Y032
M30
